<?xml version="1.0" encoding="UTF-8"?>
<svg id="_레이어_1" data-name="레이어 1" xmlns="http://www.w3.org/2000/svg" viewBox="0 0 1024 1024">
  <defs>
    <style>
      .cls-1 {
        fill: #0abe8c;
        stroke-width: 0px;
      }
    </style>
  </defs>
  <path class="cls-1" d="m304.57,539.65c-76.19,0-129.29-35.75-129.29-67.84s53.1-67.84,129.29-67.84v-44.65c-97.54,0-173.94,49.41-173.94,112.49s76.4,112.49,173.94,112.49v-44.65Z"/>
  <path class="cls-1" d="m302.68,471.81c0,63.08,76.4,112.49,173.94,112.49v-44.65c-76.19,0-129.29-35.75-129.29-67.84s53.1-67.84,129.29-67.84v-44.65c-97.54,0-173.94,49.41-173.94,112.49Z"/>
  <path class="cls-1" d="m512.51,471.81c0,63.08,76.41,112.49,173.95,112.49v-44.65c-76.19,0-129.3-35.75-129.3-67.84s53.11-67.84,129.3-67.84v-44.65c-97.54,0-173.95,49.41-173.95,112.49Z"/>
  <rect class="cls-1" x="157.83" y="632" width="318.79" height="44.65"/>
  <polygon class="cls-1" points="893.37 468.55 779.85 451.72 779.85 338.07 735.2 338.07 735.2 685.39 779.85 685.39 779.85 496.86 886.83 512.72 893.37 468.55"/>
</svg>