<?xml version="1.0" encoding="UTF-8"?>
<svg id="_레이어_1" data-name="레이어 1" xmlns="http://www.w3.org/2000/svg" viewBox="0 0 1024 1024">
  <defs>
    <style>
      .cls-1 {
        fill: #0abe8c;
      }

      .cls-1, .cls-2 {
        stroke-width: 0px;
      }

      .cls-2 {
        fill: #fff;
      }
    </style>
  </defs>
  <rect class="cls-1" x="-7.69" y="-9.32" width="1047.8" height="1047.8"/>
  <g>
    <path class="cls-2" d="m309.28,542.5c-76.19,0-129.29-35.75-129.29-67.84s53.1-67.84,129.29-67.84v-44.65c-97.54,0-173.94,49.41-173.94,112.49s76.4,112.49,173.94,112.49v-44.65Z"/>
    <path class="cls-2" d="m307.4,474.65c0,63.08,76.4,112.49,173.94,112.49v-44.65c-76.19,0-129.29-35.75-129.29-67.84s53.1-67.84,129.29-67.84v-44.65c-97.54,0-173.94,49.41-173.94,112.49Z"/>
    <path class="cls-2" d="m517.22,474.65c0,63.08,76.41,112.49,173.95,112.49v-44.65c-76.19,0-129.3-35.75-129.3-67.84s53.11-67.84,129.3-67.84v-44.65c-97.54,0-173.95,49.41-173.95,112.49Z"/>
    <rect class="cls-2" x="162.54" y="634.84" width="318.79" height="44.65"/>
    <polygon class="cls-2" points="898.08 471.39 784.57 454.56 784.57 340.91 739.92 340.91 739.92 688.23 784.57 688.23 784.57 499.7 891.54 515.56 898.08 471.39"/>
  </g>
</svg>